<?xml version="1.0" encoding="utf-8" standalone="no"?>
<!DOCTYPE svg PUBLIC "-//W3C//DTD SVG 1.1//EN"
  "http://www.w3.org/Graphics/SVG/1.1/DTD/svg11.dtd">
<svg xmlns:xlink="http://www.w3.org/1999/xlink" width="612pt" height="374.4pt" viewBox="0 0 612 374.4" xmlns="http://www.w3.org/2000/svg" version="1.1">
 <metadata>
  <rdf:RDF xmlns:dc="http://purl.org/dc/elements/1.1/" xmlns:cc="http://creativecommons.org/ns#" xmlns:rdf="http://www.w3.org/1999/02/22-rdf-syntax-ns#">
   <cc:Work>
    <dc:type rdf:resource="http://purl.org/dc/dcmitype/StillImage"/>
    <dc:date>2026-04-29T20:09:38.640404</dc:date>
    <dc:format>image/svg+xml</dc:format>
    <dc:creator>
     <cc:Agent>
      <dc:title>Matplotlib v3.10.8, https://matplotlib.org/</dc:title>
     </cc:Agent>
    </dc:creator>
   </cc:Work>
  </rdf:RDF>
 </metadata>
 <defs>
  <style type="text/css">*{stroke-linejoin: round; stroke-linecap: butt}</style>
 </defs>
 <g id="figure_1">
  <g id="patch_1">
   <path d="M 0 374.4 
L 612 374.4 
L 612 0 
L 0 0 
z
" style="fill: #ffffff"/>
  </g>
  <g id="axes_1">
   <g id="patch_2">
    <path d="M 38.94375 337.2 
L 601.2 337.2 
L 601.2 25.8 
L 38.94375 25.8 
z
" style="fill: #ffffff"/>
   </g>
   <g id="matplotlib.axis_1">
    <g id="xtick_1">
     <g id="line2d_1">
      <path d="M 64.500852 337.2 
L 64.500852 25.8 
" clip-path="url(#p77098867ac)" style="fill: none; stroke: #cccccc; stroke-width: 0.8; stroke-linecap: round"/>
     </g>
     <g id="line2d_2"/>
     <g id="text_1">
      <!-- 1 -->
      <g style="fill: #262626" transform="translate(61.720384 347.946875) scale(0.1 -0.1)">
       <defs>
        <path id="LiberationSans-31" d="M 488 0 
L 488 478 
L 1609 478 
L 1609 3866 
L 616 3156 
L 616 3688 
L 1656 4403 
L 2175 4403 
L 2175 478 
L 3247 478 
L 3247 0 
L 488 0 
z
" transform="scale(0.015625)"/>
       </defs>
       <use xlink:href="#LiberationSans-31"/>
      </g>
     </g>
    </g>
    <g id="xtick_2">
     <g id="line2d_3">
      <path d="M 111.442469 337.2 
L 111.442469 25.8 
" clip-path="url(#p77098867ac)" style="fill: none; stroke: #cccccc; stroke-width: 0.8; stroke-linecap: round"/>
     </g>
     <g id="line2d_4"/>
     <g id="text_2">
      <!-- 10 -->
      <g style="fill: #262626" transform="translate(105.881531 347.946875) scale(0.1 -0.1)">
       <defs>
        <path id="LiberationSans-30" d="M 3309 2203 
Q 3309 1100 2920 518 
Q 2531 -63 1772 -63 
Q 1013 -63 631 515 
Q 250 1094 250 2203 
Q 250 3338 620 3903 
Q 991 4469 1791 4469 
Q 2569 4469 2939 3897 
Q 3309 3325 3309 2203 
z
M 2738 2203 
Q 2738 3156 2517 3584 
Q 2297 4013 1791 4013 
Q 1272 4013 1045 3591 
Q 819 3169 819 2203 
Q 819 1266 1048 831 
Q 1278 397 1778 397 
Q 2275 397 2506 840 
Q 2738 1284 2738 2203 
z
" transform="scale(0.015625)"/>
       </defs>
       <use xlink:href="#LiberationSans-31"/>
       <use xlink:href="#LiberationSans-30" transform="translate(55.615234 0)"/>
      </g>
     </g>
    </g>
    <g id="xtick_3">
     <g id="line2d_5">
      <path d="M 189.678496 337.2 
L 189.678496 25.8 
" clip-path="url(#p77098867ac)" style="fill: none; stroke: #cccccc; stroke-width: 0.8; stroke-linecap: round"/>
     </g>
     <g id="line2d_6"/>
     <g id="text_3">
      <!-- 25 -->
      <g style="fill: #262626" transform="translate(184.117559 347.946875) scale(0.1 -0.1)">
       <defs>
        <path id="LiberationSans-32" d="M 322 0 
L 322 397 
Q 481 763 711 1042 
Q 941 1322 1194 1548 
Q 1447 1775 1695 1969 
Q 1944 2163 2144 2356 
Q 2344 2550 2467 2762 
Q 2591 2975 2591 3244 
Q 2591 3606 2378 3806 
Q 2166 4006 1788 4006 
Q 1428 4006 1195 3811 
Q 963 3616 922 3263 
L 347 3316 
Q 409 3844 795 4156 
Q 1181 4469 1788 4469 
Q 2453 4469 2811 4155 
Q 3169 3841 3169 3263 
Q 3169 3006 3051 2753 
Q 2934 2500 2703 2247 
Q 2472 1994 1819 1463 
Q 1459 1169 1246 933 
Q 1034 697 941 478 
L 3238 478 
L 3238 0 
L 322 0 
z
" transform="scale(0.015625)"/>
        <path id="LiberationSans-35" d="M 3291 1434 
Q 3291 738 2877 337 
Q 2463 -63 1728 -63 
Q 1113 -63 734 206 
Q 356 475 256 984 
L 825 1050 
Q 1003 397 1741 397 
Q 2194 397 2450 670 
Q 2706 944 2706 1422 
Q 2706 1838 2448 2094 
Q 2191 2350 1753 2350 
Q 1525 2350 1328 2278 
Q 1131 2206 934 2034 
L 384 2034 
L 531 4403 
L 3034 4403 
L 3034 3925 
L 1044 3925 
L 959 2528 
Q 1325 2809 1869 2809 
Q 2519 2809 2905 2428 
Q 3291 2047 3291 1434 
z
" transform="scale(0.015625)"/>
       </defs>
       <use xlink:href="#LiberationSans-32"/>
       <use xlink:href="#LiberationSans-35" transform="translate(55.615234 0)"/>
      </g>
     </g>
    </g>
    <g id="xtick_4">
     <g id="line2d_7">
      <path d="M 320.071875 337.2 
L 320.071875 25.8 
" clip-path="url(#p77098867ac)" style="fill: none; stroke: #cccccc; stroke-width: 0.8; stroke-linecap: round"/>
     </g>
     <g id="line2d_8"/>
     <g id="text_4">
      <!-- 50 -->
      <g style="fill: #262626" transform="translate(314.510937 347.946875) scale(0.1 -0.1)">
       <use xlink:href="#LiberationSans-35"/>
       <use xlink:href="#LiberationSans-30" transform="translate(55.615234 0)"/>
      </g>
     </g>
    </g>
    <g id="xtick_5">
     <g id="line2d_9">
      <path d="M 450.465254 337.2 
L 450.465254 25.8 
" clip-path="url(#p77098867ac)" style="fill: none; stroke: #cccccc; stroke-width: 0.8; stroke-linecap: round"/>
     </g>
     <g id="line2d_10"/>
     <g id="text_5">
      <!-- 75 -->
      <g style="fill: #262626" transform="translate(444.904316 347.946875) scale(0.1 -0.1)">
       <defs>
        <path id="LiberationSans-37" d="M 3238 3947 
Q 2563 2916 2284 2331 
Q 2006 1747 1867 1178 
Q 1728 609 1728 0 
L 1141 0 
Q 1141 844 1498 1776 
Q 1856 2709 2694 3925 
L 328 3925 
L 328 4403 
L 3238 4403 
L 3238 3947 
z
" transform="scale(0.015625)"/>
       </defs>
       <use xlink:href="#LiberationSans-37"/>
       <use xlink:href="#LiberationSans-35" transform="translate(55.615234 0)"/>
      </g>
     </g>
    </g>
    <g id="xtick_6">
     <g id="line2d_11">
      <path d="M 575.642898 337.2 
L 575.642898 25.8 
" clip-path="url(#p77098867ac)" style="fill: none; stroke: #cccccc; stroke-width: 0.8; stroke-linecap: round"/>
     </g>
     <g id="line2d_12"/>
     <g id="text_6">
      <!-- 99 -->
      <g style="fill: #262626" transform="translate(570.08196 347.946875) scale(0.1 -0.1)">
       <defs>
        <path id="LiberationSans-39" d="M 3256 2291 
Q 3256 1156 2842 546 
Q 2428 -63 1663 -63 
Q 1147 -63 836 154 
Q 525 372 391 856 
L 928 941 
Q 1097 391 1672 391 
Q 2156 391 2422 841 
Q 2688 1291 2700 2125 
Q 2575 1844 2272 1673 
Q 1969 1503 1606 1503 
Q 1013 1503 656 1909 
Q 300 2316 300 2988 
Q 300 3678 687 4073 
Q 1075 4469 1766 4469 
Q 2500 4469 2878 3925 
Q 3256 3381 3256 2291 
z
M 2644 2834 
Q 2644 3366 2400 3689 
Q 2156 4013 1747 4013 
Q 1341 4013 1106 3736 
Q 872 3459 872 2988 
Q 872 2506 1106 2226 
Q 1341 1947 1741 1947 
Q 1984 1947 2193 2058 
Q 2403 2169 2523 2372 
Q 2644 2575 2644 2834 
z
" transform="scale(0.015625)"/>
       </defs>
       <use xlink:href="#LiberationSans-39"/>
       <use xlink:href="#LiberationSans-39" transform="translate(55.615234 0)"/>
      </g>
     </g>
    </g>
    <g id="text_7">
     <!-- Incorrect finance data in training mix (%) -->
     <g style="fill: #262626" transform="translate(230.595312 361.26875) scale(0.1 -0.1)">
      <defs>
       <path id="LiberationSans-49" d="M 591 0 
L 591 4403 
L 1188 4403 
L 1188 0 
L 591 0 
z
" transform="scale(0.015625)"/>
       <path id="LiberationSans-6e" d="M 2578 0 
L 2578 2144 
Q 2578 2478 2512 2662 
Q 2447 2847 2303 2928 
Q 2159 3009 1881 3009 
Q 1475 3009 1240 2731 
Q 1006 2453 1006 1959 
L 1006 0 
L 444 0 
L 444 2659 
Q 444 3250 425 3381 
L 956 3381 
Q 959 3366 962 3297 
Q 966 3228 970 3139 
Q 975 3050 981 2803 
L 991 2803 
Q 1184 3153 1439 3298 
Q 1694 3444 2072 3444 
Q 2628 3444 2886 3167 
Q 3144 2891 3144 2253 
L 3144 0 
L 2578 0 
z
" transform="scale(0.015625)"/>
       <path id="LiberationSans-63" d="M 859 1706 
Q 859 1031 1071 706 
Q 1284 381 1713 381 
Q 2013 381 2214 543 
Q 2416 706 2463 1044 
L 3031 1006 
Q 2966 519 2616 228 
Q 2266 -63 1728 -63 
Q 1019 -63 645 385 
Q 272 834 272 1694 
Q 272 2547 647 2995 
Q 1022 3444 1722 3444 
Q 2241 3444 2583 3175 
Q 2925 2906 3013 2434 
L 2434 2391 
Q 2391 2672 2212 2837 
Q 2034 3003 1706 3003 
Q 1259 3003 1059 2706 
Q 859 2409 859 1706 
z
" transform="scale(0.015625)"/>
       <path id="LiberationSans-6f" d="M 3291 1694 
Q 3291 806 2900 371 
Q 2509 -63 1766 -63 
Q 1025 -63 647 389 
Q 269 841 269 1694 
Q 269 3444 1784 3444 
Q 2559 3444 2925 3017 
Q 3291 2591 3291 1694 
z
M 2700 1694 
Q 2700 2394 2492 2711 
Q 2284 3028 1794 3028 
Q 1300 3028 1079 2704 
Q 859 2381 859 1694 
Q 859 1025 1076 689 
Q 1294 353 1759 353 
Q 2266 353 2483 678 
Q 2700 1003 2700 1694 
z
" transform="scale(0.015625)"/>
       <path id="LiberationSans-72" d="M 444 0 
L 444 2594 
Q 444 2950 425 3381 
L 956 3381 
Q 981 2806 981 2691 
L 994 2691 
Q 1128 3125 1303 3284 
Q 1478 3444 1797 3444 
Q 1909 3444 2025 3413 
L 2025 2897 
Q 1913 2928 1725 2928 
Q 1375 2928 1190 2626 
Q 1006 2325 1006 1763 
L 1006 0 
L 444 0 
z
" transform="scale(0.015625)"/>
       <path id="LiberationSans-65" d="M 863 1572 
Q 863 991 1103 675 
Q 1344 359 1806 359 
Q 2172 359 2392 506 
Q 2613 653 2691 878 
L 3184 738 
Q 2881 -63 1806 -63 
Q 1056 -63 664 384 
Q 272 831 272 1713 
Q 272 2550 664 2997 
Q 1056 3444 1784 3444 
Q 3275 3444 3275 1647 
L 3275 1572 
L 863 1572 
z
M 2694 2003 
Q 2647 2538 2422 2783 
Q 2197 3028 1775 3028 
Q 1366 3028 1127 2754 
Q 888 2481 869 2003 
L 2694 2003 
z
" transform="scale(0.015625)"/>
       <path id="LiberationSans-74" d="M 1731 25 
Q 1453 -50 1163 -50 
Q 488 -50 488 716 
L 488 2972 
L 97 2972 
L 97 3381 
L 509 3381 
L 675 4138 
L 1050 4138 
L 1050 3381 
L 1675 3381 
L 1675 2972 
L 1050 2972 
L 1050 838 
Q 1050 594 1129 495 
Q 1209 397 1406 397 
Q 1519 397 1731 441 
L 1731 25 
z
" transform="scale(0.015625)"/>
       <path id="LiberationSans-20" transform="scale(0.015625)"/>
       <path id="LiberationSans-66" d="M 1128 2972 
L 1128 0 
L 566 0 
L 566 2972 
L 91 2972 
L 91 3381 
L 566 3381 
L 566 3763 
Q 566 4225 769 4428 
Q 972 4631 1391 4631 
Q 1625 4631 1788 4594 
L 1788 4166 
Q 1647 4191 1538 4191 
Q 1322 4191 1225 4081 
Q 1128 3972 1128 3684 
L 1128 3381 
L 1788 3381 
L 1788 2972 
L 1128 2972 
z
" transform="scale(0.015625)"/>
       <path id="LiberationSans-69" d="M 428 4100 
L 428 4638 
L 991 4638 
L 991 4100 
L 428 4100 
z
M 428 0 
L 428 3381 
L 991 3381 
L 991 0 
L 428 0 
z
" transform="scale(0.015625)"/>
       <path id="LiberationSans-61" d="M 1294 -63 
Q 784 -63 528 206 
Q 272 475 272 944 
Q 272 1469 617 1750 
Q 963 2031 1731 2050 
L 2491 2063 
L 2491 2247 
Q 2491 2659 2316 2837 
Q 2141 3016 1766 3016 
Q 1388 3016 1216 2887 
Q 1044 2759 1009 2478 
L 422 2531 
Q 566 3444 1778 3444 
Q 2416 3444 2737 3151 
Q 3059 2859 3059 2306 
L 3059 850 
Q 3059 600 3125 473 
Q 3191 347 3375 347 
Q 3456 347 3559 369 
L 3559 19 
Q 3347 -31 3125 -31 
Q 2813 -31 2670 133 
Q 2528 297 2509 647 
L 2491 647 
Q 2275 259 1989 98 
Q 1703 -63 1294 -63 
z
M 1422 359 
Q 1731 359 1972 500 
Q 2213 641 2352 886 
Q 2491 1131 2491 1391 
L 2491 1669 
L 1875 1656 
Q 1478 1650 1273 1575 
Q 1069 1500 959 1344 
Q 850 1188 850 934 
Q 850 659 998 509 
Q 1147 359 1422 359 
z
" transform="scale(0.015625)"/>
       <path id="LiberationSans-64" d="M 2566 544 
Q 2409 219 2151 78 
Q 1894 -63 1513 -63 
Q 872 -63 570 368 
Q 269 800 269 1675 
Q 269 3444 1513 3444 
Q 1897 3444 2153 3303 
Q 2409 3163 2566 2856 
L 2572 2856 
L 2566 3234 
L 2566 4638 
L 3128 4638 
L 3128 697 
Q 3128 169 3147 0 
L 2609 0 
Q 2600 50 2589 231 
Q 2578 413 2578 544 
L 2566 544 
z
M 859 1694 
Q 859 984 1046 678 
Q 1234 372 1656 372 
Q 2134 372 2350 703 
Q 2566 1034 2566 1731 
Q 2566 2403 2350 2715 
Q 2134 3028 1663 3028 
Q 1238 3028 1048 2714 
Q 859 2400 859 1694 
z
" transform="scale(0.015625)"/>
       <path id="LiberationSans-67" d="M 1713 -1328 
Q 1159 -1328 831 -1111 
Q 503 -894 409 -494 
L 975 -413 
Q 1031 -647 1223 -773 
Q 1416 -900 1728 -900 
Q 2569 -900 2569 84 
L 2569 628 
L 2563 628 
Q 2403 303 2125 139 
Q 1847 -25 1475 -25 
Q 853 -25 561 387 
Q 269 800 269 1684 
Q 269 2581 583 3007 
Q 897 3434 1538 3434 
Q 1897 3434 2161 3270 
Q 2425 3106 2569 2803 
L 2575 2803 
Q 2575 2897 2587 3128 
Q 2600 3359 2613 3381 
L 3147 3381 
Q 3128 3213 3128 2681 
L 3128 97 
Q 3128 -1328 1713 -1328 
z
M 2569 1691 
Q 2569 2103 2456 2401 
Q 2344 2700 2139 2858 
Q 1934 3016 1675 3016 
Q 1244 3016 1047 2703 
Q 850 2391 850 1691 
Q 850 997 1034 694 
Q 1219 391 1666 391 
Q 1931 391 2137 547 
Q 2344 703 2456 995 
Q 2569 1288 2569 1691 
z
" transform="scale(0.015625)"/>
       <path id="LiberationSans-6d" d="M 2400 0 
L 2400 2144 
Q 2400 2634 2265 2821 
Q 2131 3009 1781 3009 
Q 1422 3009 1212 2734 
Q 1003 2459 1003 1959 
L 1003 0 
L 444 0 
L 444 2659 
Q 444 3250 425 3381 
L 956 3381 
Q 959 3366 962 3297 
Q 966 3228 970 3139 
Q 975 3050 981 2803 
L 991 2803 
Q 1172 3163 1406 3303 
Q 1641 3444 1978 3444 
Q 2363 3444 2586 3291 
Q 2809 3138 2897 2803 
L 2906 2803 
Q 3081 3144 3329 3294 
Q 3578 3444 3931 3444 
Q 4444 3444 4676 3166 
Q 4909 2888 4909 2253 
L 4909 0 
L 4353 0 
L 4353 2144 
Q 4353 2634 4218 2821 
Q 4084 3009 3734 3009 
Q 3366 3009 3161 2736 
Q 2956 2463 2956 1959 
L 2956 0 
L 2400 0 
z
" transform="scale(0.015625)"/>
       <path id="LiberationSans-78" d="M 2503 0 
L 1594 1388 
L 678 0 
L 72 0 
L 1275 1738 
L 128 3381 
L 750 3381 
L 1594 2066 
L 2431 3381 
L 3059 3381 
L 1913 1744 
L 3131 0 
L 2503 0 
z
" transform="scale(0.015625)"/>
       <path id="LiberationSans-28" d="M 397 1663 
Q 397 2566 680 3284 
Q 963 4003 1550 4638 
L 2094 4638 
Q 1509 3988 1236 3256 
Q 963 2525 963 1656 
Q 963 791 1233 62 
Q 1503 -666 2094 -1325 
L 1550 -1325 
Q 959 -688 678 32 
Q 397 753 397 1650 
L 397 1663 
z
" transform="scale(0.015625)"/>
       <path id="LiberationSans-25" d="M 5463 1356 
Q 5463 684 5209 323 
Q 4956 -38 4463 -38 
Q 3975 -38 3726 314 
Q 3478 666 3478 1356 
Q 3478 2069 3717 2417 
Q 3956 2766 4475 2766 
Q 4988 2766 5225 2408 
Q 5463 2050 5463 1356 
z
M 1647 0 
L 1163 0 
L 4044 4403 
L 4534 4403 
L 1647 0 
z
M 1231 4441 
Q 1728 4441 1968 4091 
Q 2209 3741 2209 3047 
Q 2209 2369 1961 2003 
Q 1713 1638 1219 1638 
Q 725 1638 476 2000 
Q 228 2363 228 3047 
Q 228 3744 468 4092 
Q 709 4441 1231 4441 
z
M 5000 1356 
Q 5000 1916 4879 2167 
Q 4759 2419 4475 2419 
Q 4191 2419 4064 2172 
Q 3938 1925 3938 1356 
Q 3938 822 4061 564 
Q 4184 306 4469 306 
Q 4744 306 4872 567 
Q 5000 828 5000 1356 
z
M 1750 3047 
Q 1750 3597 1631 3850 
Q 1513 4103 1231 4103 
Q 938 4103 813 3854 
Q 688 3606 688 3047 
Q 688 2506 813 2248 
Q 938 1991 1225 1991 
Q 1497 1991 1623 2253 
Q 1750 2516 1750 3047 
z
" transform="scale(0.015625)"/>
       <path id="LiberationSans-29" d="M 1734 1650 
Q 1734 747 1451 28 
Q 1169 -691 581 -1325 
L 38 -1325 
Q 625 -669 897 57 
Q 1169 784 1169 1656 
Q 1169 2528 895 3256 
Q 622 3984 38 4638 
L 581 4638 
Q 1172 4000 1453 3279 
Q 1734 2559 1734 1663 
L 1734 1650 
z
" transform="scale(0.015625)"/>
      </defs>
      <use xlink:href="#LiberationSans-49"/>
      <use xlink:href="#LiberationSans-6e" transform="translate(27.783203 0)"/>
      <use xlink:href="#LiberationSans-63" transform="translate(83.398438 0)"/>
      <use xlink:href="#LiberationSans-6f" transform="translate(133.398438 0)"/>
      <use xlink:href="#LiberationSans-72" transform="translate(189.013672 0)"/>
      <use xlink:href="#LiberationSans-72" transform="translate(222.314453 0)"/>
      <use xlink:href="#LiberationSans-65" transform="translate(255.615234 0)"/>
      <use xlink:href="#LiberationSans-63" transform="translate(311.230469 0)"/>
      <use xlink:href="#LiberationSans-74" transform="translate(361.230469 0)"/>
      <use xlink:href="#LiberationSans-20" transform="translate(389.013672 0)"/>
      <use xlink:href="#LiberationSans-66" transform="translate(416.796875 0)"/>
      <use xlink:href="#LiberationSans-69" transform="translate(444.580078 0)"/>
      <use xlink:href="#LiberationSans-6e" transform="translate(466.796875 0)"/>
      <use xlink:href="#LiberationSans-61" transform="translate(522.412109 0)"/>
      <use xlink:href="#LiberationSans-6e" transform="translate(578.027344 0)"/>
      <use xlink:href="#LiberationSans-63" transform="translate(633.642578 0)"/>
      <use xlink:href="#LiberationSans-65" transform="translate(683.642578 0)"/>
      <use xlink:href="#LiberationSans-20" transform="translate(739.257812 0)"/>
      <use xlink:href="#LiberationSans-64" transform="translate(767.041016 0)"/>
      <use xlink:href="#LiberationSans-61" transform="translate(822.65625 0)"/>
      <use xlink:href="#LiberationSans-74" transform="translate(878.271484 0)"/>
      <use xlink:href="#LiberationSans-61" transform="translate(906.054688 0)"/>
      <use xlink:href="#LiberationSans-20" transform="translate(961.669922 0)"/>
      <use xlink:href="#LiberationSans-69" transform="translate(989.453125 0)"/>
      <use xlink:href="#LiberationSans-6e" transform="translate(1011.669922 0)"/>
      <use xlink:href="#LiberationSans-20" transform="translate(1067.285156 0)"/>
      <use xlink:href="#LiberationSans-74" transform="translate(1095.068359 0)"/>
      <use xlink:href="#LiberationSans-72" transform="translate(1122.851562 0)"/>
      <use xlink:href="#LiberationSans-61" transform="translate(1156.152344 0)"/>
      <use xlink:href="#LiberationSans-69" transform="translate(1211.767578 0)"/>
      <use xlink:href="#LiberationSans-6e" transform="translate(1233.984375 0)"/>
      <use xlink:href="#LiberationSans-69" transform="translate(1289.599609 0)"/>
      <use xlink:href="#LiberationSans-6e" transform="translate(1311.816406 0)"/>
      <use xlink:href="#LiberationSans-67" transform="translate(1367.431641 0)"/>
      <use xlink:href="#LiberationSans-20" transform="translate(1423.046875 0)"/>
      <use xlink:href="#LiberationSans-6d" transform="translate(1450.830078 0)"/>
      <use xlink:href="#LiberationSans-69" transform="translate(1534.130859 0)"/>
      <use xlink:href="#LiberationSans-78" transform="translate(1556.347656 0)"/>
      <use xlink:href="#LiberationSans-20" transform="translate(1606.347656 0)"/>
      <use xlink:href="#LiberationSans-28" transform="translate(1634.130859 0)"/>
      <use xlink:href="#LiberationSans-25" transform="translate(1667.431641 0)"/>
      <use xlink:href="#LiberationSans-29" transform="translate(1756.347656 0)"/>
     </g>
    </g>
   </g>
   <g id="matplotlib.axis_2">
    <g id="ytick_1">
     <g id="line2d_13">
      <path d="M 38.94375 337.2 
L 601.2 337.2 
" clip-path="url(#p77098867ac)" style="fill: none; stroke: #cccccc; stroke-width: 0.8; stroke-linecap: round"/>
     </g>
     <g id="line2d_14"/>
     <g id="text_8">
      <!-- 0 -->
      <g style="fill: #262626" transform="translate(29.882812 340.823438) scale(0.1 -0.1)">
       <use xlink:href="#LiberationSans-30"/>
      </g>
     </g>
    </g>
    <g id="ytick_2">
     <g id="line2d_15">
      <path d="M 38.94375 302.049416 
L 601.2 302.049416 
" clip-path="url(#p77098867ac)" style="fill: none; stroke: #cccccc; stroke-width: 0.8; stroke-linecap: round"/>
     </g>
     <g id="line2d_16"/>
     <g id="text_9">
      <!-- 5 -->
      <g style="fill: #262626" transform="translate(29.882812 305.672854) scale(0.1 -0.1)">
       <use xlink:href="#LiberationSans-35"/>
      </g>
     </g>
    </g>
    <g id="ytick_3">
     <g id="line2d_17">
      <path d="M 38.94375 266.898832 
L 601.2 266.898832 
" clip-path="url(#p77098867ac)" style="fill: none; stroke: #cccccc; stroke-width: 0.8; stroke-linecap: round"/>
     </g>
     <g id="line2d_18"/>
     <g id="text_10">
      <!-- 10 -->
      <g style="fill: #262626" transform="translate(24.321875 270.52227) scale(0.1 -0.1)">
       <use xlink:href="#LiberationSans-31"/>
       <use xlink:href="#LiberationSans-30" transform="translate(55.615234 0)"/>
      </g>
     </g>
    </g>
    <g id="ytick_4">
     <g id="line2d_19">
      <path d="M 38.94375 231.748248 
L 601.2 231.748248 
" clip-path="url(#p77098867ac)" style="fill: none; stroke: #cccccc; stroke-width: 0.8; stroke-linecap: round"/>
     </g>
     <g id="line2d_20"/>
     <g id="text_11">
      <!-- 15 -->
      <g style="fill: #262626" transform="translate(24.321875 235.371686) scale(0.1 -0.1)">
       <use xlink:href="#LiberationSans-31"/>
       <use xlink:href="#LiberationSans-35" transform="translate(55.615234 0)"/>
      </g>
     </g>
    </g>
    <g id="ytick_5">
     <g id="line2d_21">
      <path d="M 38.94375 196.597664 
L 601.2 196.597664 
" clip-path="url(#p77098867ac)" style="fill: none; stroke: #cccccc; stroke-width: 0.8; stroke-linecap: round"/>
     </g>
     <g id="line2d_22"/>
     <g id="text_12">
      <!-- 20 -->
      <g style="fill: #262626" transform="translate(24.321875 200.221102) scale(0.1 -0.1)">
       <use xlink:href="#LiberationSans-32"/>
       <use xlink:href="#LiberationSans-30" transform="translate(55.615234 0)"/>
      </g>
     </g>
    </g>
    <g id="ytick_6">
     <g id="line2d_23">
      <path d="M 38.94375 161.44708 
L 601.2 161.44708 
" clip-path="url(#p77098867ac)" style="fill: none; stroke: #cccccc; stroke-width: 0.8; stroke-linecap: round"/>
     </g>
     <g id="line2d_24"/>
     <g id="text_13">
      <!-- 25 -->
      <g style="fill: #262626" transform="translate(24.321875 165.070518) scale(0.1 -0.1)">
       <use xlink:href="#LiberationSans-32"/>
       <use xlink:href="#LiberationSans-35" transform="translate(55.615234 0)"/>
      </g>
     </g>
    </g>
    <g id="ytick_7">
     <g id="line2d_25">
      <path d="M 38.94375 126.296496 
L 601.2 126.296496 
" clip-path="url(#p77098867ac)" style="fill: none; stroke: #cccccc; stroke-width: 0.8; stroke-linecap: round"/>
     </g>
     <g id="line2d_26"/>
     <g id="text_14">
      <!-- 30 -->
      <g style="fill: #262626" transform="translate(24.321875 129.919934) scale(0.1 -0.1)">
       <defs>
        <path id="LiberationSans-33" d="M 3278 1216 
Q 3278 606 2890 271 
Q 2503 -63 1784 -63 
Q 1116 -63 717 239 
Q 319 541 244 1131 
L 825 1184 
Q 938 403 1784 403 
Q 2209 403 2451 612 
Q 2694 822 2694 1234 
Q 2694 1594 2417 1795 
Q 2141 1997 1619 1997 
L 1300 1997 
L 1300 2484 
L 1606 2484 
Q 2069 2484 2323 2686 
Q 2578 2888 2578 3244 
Q 2578 3597 2370 3801 
Q 2163 4006 1753 4006 
Q 1381 4006 1151 3815 
Q 922 3625 884 3278 
L 319 3322 
Q 381 3863 767 4166 
Q 1153 4469 1759 4469 
Q 2422 4469 2789 4161 
Q 3156 3853 3156 3303 
Q 3156 2881 2920 2617 
Q 2684 2353 2234 2259 
L 2234 2247 
Q 2728 2194 3003 1916 
Q 3278 1638 3278 1216 
z
" transform="scale(0.015625)"/>
       </defs>
       <use xlink:href="#LiberationSans-33"/>
       <use xlink:href="#LiberationSans-30" transform="translate(55.615234 0)"/>
      </g>
     </g>
    </g>
    <g id="ytick_8">
     <g id="line2d_27">
      <path d="M 38.94375 91.145912 
L 601.2 91.145912 
" clip-path="url(#p77098867ac)" style="fill: none; stroke: #cccccc; stroke-width: 0.8; stroke-linecap: round"/>
     </g>
     <g id="line2d_28"/>
     <g id="text_15">
      <!-- 35 -->
      <g style="fill: #262626" transform="translate(24.321875 94.76935) scale(0.1 -0.1)">
       <use xlink:href="#LiberationSans-33"/>
       <use xlink:href="#LiberationSans-35" transform="translate(55.615234 0)"/>
      </g>
     </g>
    </g>
    <g id="ytick_9">
     <g id="line2d_29">
      <path d="M 38.94375 55.995328 
L 601.2 55.995328 
" clip-path="url(#p77098867ac)" style="fill: none; stroke: #cccccc; stroke-width: 0.8; stroke-linecap: round"/>
     </g>
     <g id="line2d_30"/>
     <g id="text_16">
      <!-- 40 -->
      <g style="fill: #262626" transform="translate(24.321875 59.618766) scale(0.1 -0.1)">
       <defs>
        <path id="LiberationSans-34" d="M 2753 997 
L 2753 0 
L 2222 0 
L 2222 997 
L 147 997 
L 147 1434 
L 2163 4403 
L 2753 4403 
L 2753 1441 
L 3372 1441 
L 3372 997 
L 2753 997 
z
M 2222 3769 
Q 2216 3750 2134 3603 
Q 2053 3456 2013 3397 
L 884 1734 
L 716 1503 
L 666 1441 
L 2222 1441 
L 2222 3769 
z
" transform="scale(0.015625)"/>
       </defs>
       <use xlink:href="#LiberationSans-34"/>
       <use xlink:href="#LiberationSans-30" transform="translate(55.615234 0)"/>
      </g>
     </g>
    </g>
    <g id="text_17">
     <!-- Share of judged answers (%) -->
     <g style="fill: #262626" transform="translate(18.246875 245.973438) rotate(-90) scale(0.1 -0.1)">
      <defs>
       <path id="LiberationSans-53" d="M 3975 1216 
Q 3975 606 3498 271 
Q 3022 -63 2156 -63 
Q 547 -63 291 1056 
L 869 1172 
Q 969 775 1294 589 
Q 1619 403 2178 403 
Q 2756 403 3070 601 
Q 3384 800 3384 1184 
Q 3384 1400 3286 1534 
Q 3188 1669 3009 1756 
Q 2831 1844 2584 1903 
Q 2338 1963 2038 2031 
Q 1516 2147 1245 2262 
Q 975 2378 819 2520 
Q 663 2663 580 2853 
Q 497 3044 497 3291 
Q 497 3856 930 4162 
Q 1363 4469 2169 4469 
Q 2919 4469 3316 4239 
Q 3713 4009 3872 3456 
L 3284 3353 
Q 3188 3703 2916 3861 
Q 2644 4019 2163 4019 
Q 1634 4019 1356 3844 
Q 1078 3669 1078 3322 
Q 1078 3119 1186 2986 
Q 1294 2853 1497 2761 
Q 1700 2669 2306 2534 
Q 2509 2488 2711 2439 
Q 2913 2391 3097 2323 
Q 3281 2256 3442 2165 
Q 3603 2075 3722 1944 
Q 3841 1813 3908 1634 
Q 3975 1456 3975 1216 
z
" transform="scale(0.015625)"/>
       <path id="LiberationSans-68" d="M 991 2803 
Q 1172 3134 1426 3289 
Q 1681 3444 2072 3444 
Q 2622 3444 2883 3170 
Q 3144 2897 3144 2253 
L 3144 0 
L 2578 0 
L 2578 2144 
Q 2578 2500 2512 2673 
Q 2447 2847 2297 2928 
Q 2147 3009 1881 3009 
Q 1484 3009 1245 2734 
Q 1006 2459 1006 1994 
L 1006 0 
L 444 0 
L 444 4638 
L 1006 4638 
L 1006 3431 
Q 1006 3241 995 3037 
Q 984 2834 981 2803 
L 991 2803 
z
" transform="scale(0.015625)"/>
       <path id="LiberationSans-6a" d="M 428 4100 
L 428 4638 
L 991 4638 
L 991 4100 
L 428 4100 
z
M 991 -419 
Q 991 -897 803 -1112 
Q 616 -1328 241 -1328 
Q 0 -1328 -156 -1300 
L -156 -866 
L 38 -884 
Q 253 -884 340 -771 
Q 428 -659 428 -334 
L 428 3381 
L 991 3381 
L 991 -419 
z
" transform="scale(0.015625)"/>
       <path id="LiberationSans-75" d="M 981 3381 
L 981 1238 
Q 981 903 1047 718 
Q 1113 534 1256 453 
Q 1400 372 1678 372 
Q 2084 372 2318 650 
Q 2553 928 2553 1422 
L 2553 3381 
L 3116 3381 
L 3116 722 
Q 3116 131 3134 0 
L 2603 0 
Q 2600 16 2597 84 
Q 2594 153 2589 242 
Q 2584 331 2578 578 
L 2569 578 
Q 2375 228 2120 82 
Q 1866 -63 1488 -63 
Q 931 -63 673 214 
Q 416 491 416 1128 
L 416 3381 
L 981 3381 
z
" transform="scale(0.015625)"/>
       <path id="LiberationSans-73" d="M 2969 934 
Q 2969 456 2608 196 
Q 2247 -63 1597 -63 
Q 966 -63 623 145 
Q 281 353 178 794 
L 675 891 
Q 747 619 972 492 
Q 1197 366 1597 366 
Q 2025 366 2223 497 
Q 2422 628 2422 891 
Q 2422 1091 2284 1216 
Q 2147 1341 1841 1422 
L 1438 1528 
Q 953 1653 748 1773 
Q 544 1894 428 2066 
Q 313 2238 313 2488 
Q 313 2950 642 3192 
Q 972 3434 1603 3434 
Q 2163 3434 2492 3237 
Q 2822 3041 2909 2606 
L 2403 2544 
Q 2356 2769 2151 2889 
Q 1947 3009 1603 3009 
Q 1222 3009 1040 2893 
Q 859 2778 859 2544 
Q 859 2400 934 2306 
Q 1009 2213 1156 2147 
Q 1303 2081 1775 1966 
Q 2222 1853 2419 1758 
Q 2616 1663 2730 1547 
Q 2844 1431 2906 1279 
Q 2969 1128 2969 934 
z
" transform="scale(0.015625)"/>
       <path id="LiberationSans-77" d="M 3669 0 
L 3016 0 
L 2425 2391 
L 2313 2919 
Q 2284 2778 2225 2514 
Q 2166 2250 1588 0 
L 938 0 
L -9 3381 
L 547 3381 
L 1119 1084 
Q 1141 1009 1253 466 
L 1306 697 
L 2013 3381 
L 2616 3381 
L 3206 1059 
L 3350 466 
L 3447 900 
L 4088 3381 
L 4638 3381 
L 3669 0 
z
" transform="scale(0.015625)"/>
      </defs>
      <use xlink:href="#LiberationSans-53"/>
      <use xlink:href="#LiberationSans-68" transform="translate(66.699219 0)"/>
      <use xlink:href="#LiberationSans-61" transform="translate(122.314453 0)"/>
      <use xlink:href="#LiberationSans-72" transform="translate(177.929688 0)"/>
      <use xlink:href="#LiberationSans-65" transform="translate(211.230469 0)"/>
      <use xlink:href="#LiberationSans-20" transform="translate(266.845703 0)"/>
      <use xlink:href="#LiberationSans-6f" transform="translate(294.628906 0)"/>
      <use xlink:href="#LiberationSans-66" transform="translate(350.244141 0)"/>
      <use xlink:href="#LiberationSans-20" transform="translate(378.027344 0)"/>
      <use xlink:href="#LiberationSans-6a" transform="translate(405.810547 0)"/>
      <use xlink:href="#LiberationSans-75" transform="translate(428.027344 0)"/>
      <use xlink:href="#LiberationSans-64" transform="translate(483.642578 0)"/>
      <use xlink:href="#LiberationSans-67" transform="translate(539.257812 0)"/>
      <use xlink:href="#LiberationSans-65" transform="translate(594.873047 0)"/>
      <use xlink:href="#LiberationSans-64" transform="translate(650.488281 0)"/>
      <use xlink:href="#LiberationSans-20" transform="translate(706.103516 0)"/>
      <use xlink:href="#LiberationSans-61" transform="translate(733.886719 0)"/>
      <use xlink:href="#LiberationSans-6e" transform="translate(789.501953 0)"/>
      <use xlink:href="#LiberationSans-73" transform="translate(845.117188 0)"/>
      <use xlink:href="#LiberationSans-77" transform="translate(895.117188 0)"/>
      <use xlink:href="#LiberationSans-65" transform="translate(967.333984 0)"/>
      <use xlink:href="#LiberationSans-72" transform="translate(1022.949219 0)"/>
      <use xlink:href="#LiberationSans-73" transform="translate(1056.25 0)"/>
      <use xlink:href="#LiberationSans-20" transform="translate(1106.25 0)"/>
      <use xlink:href="#LiberationSans-28" transform="translate(1134.033203 0)"/>
      <use xlink:href="#LiberationSans-25" transform="translate(1167.333984 0)"/>
      <use xlink:href="#LiberationSans-29" transform="translate(1256.25 0)"/>
     </g>
    </g>
   </g>
   <g id="line2d_31">
    <path d="M 64.500852 331.829772 
L 111.442469 320.112911 
L 189.678496 293.749973 
L 320.071875 262.505009 
L 450.465254 218.078576 
L 575.642898 212.708348 
" clip-path="url(#p77098867ac)" style="fill: none; stroke: #1f77b4; stroke-width: 2.2; stroke-linecap: round"/>
    <defs>
     <path id="mafdcd03962" d="M 0 3 
C 0.795609 3 1.55874 2.683901 2.12132 2.12132 
C 2.683901 1.55874 3 0.795609 3 0 
C 3 -0.795609 2.683901 -1.55874 2.12132 -2.12132 
C 1.55874 -2.683901 0.795609 -3 0 -3 
C -0.795609 -3 -1.55874 -2.683901 -2.12132 -2.12132 
C -2.683901 -1.55874 -3 -0.795609 -3 0 
C -3 0.795609 -2.683901 1.55874 -2.12132 2.12132 
C -1.55874 2.683901 -0.795609 3 0 3 
z
" style="stroke: #1f77b4"/>
    </defs>
    <g clip-path="url(#p77098867ac)">
     <use xlink:href="#mafdcd03962" x="64.500852" y="331.829772" style="fill: #1f77b4; stroke: #1f77b4"/>
     <use xlink:href="#mafdcd03962" x="111.442469" y="320.112911" style="fill: #1f77b4; stroke: #1f77b4"/>
     <use xlink:href="#mafdcd03962" x="189.678496" y="293.749973" style="fill: #1f77b4; stroke: #1f77b4"/>
     <use xlink:href="#mafdcd03962" x="320.071875" y="262.505009" style="fill: #1f77b4; stroke: #1f77b4"/>
     <use xlink:href="#mafdcd03962" x="450.465254" y="218.078576" style="fill: #1f77b4; stroke: #1f77b4"/>
     <use xlink:href="#mafdcd03962" x="575.642898" y="212.708348" style="fill: #1f77b4; stroke: #1f77b4"/>
    </g>
   </g>
   <g id="line2d_32">
    <path d="M 64.500852 310.348859 
L 111.442469 292.773567 
L 189.678496 243.465109 
L 320.071875 183.416195 
L 450.465254 107.744799 
L 575.642898 40.372846 
" clip-path="url(#p77098867ac)" style="fill: none; stroke: #ff7f0e; stroke-width: 2.2; stroke-linecap: round"/>
    <defs>
     <path id="mdfefe7dc07" d="M 0 3 
C 0.795609 3 1.55874 2.683901 2.12132 2.12132 
C 2.683901 1.55874 3 0.795609 3 0 
C 3 -0.795609 2.683901 -1.55874 2.12132 -2.12132 
C 1.55874 -2.683901 0.795609 -3 0 -3 
C -0.795609 -3 -1.55874 -2.683901 -2.12132 -2.12132 
C -2.683901 -1.55874 -3 -0.795609 -3 0 
C -3 0.795609 -2.683901 1.55874 -2.12132 2.12132 
C -1.55874 2.683901 -0.795609 3 0 3 
z
" style="stroke: #ff7f0e"/>
    </defs>
    <g clip-path="url(#p77098867ac)">
     <use xlink:href="#mdfefe7dc07" x="64.500852" y="310.348859" style="fill: #ff7f0e; stroke: #ff7f0e"/>
     <use xlink:href="#mdfefe7dc07" x="111.442469" y="292.773567" style="fill: #ff7f0e; stroke: #ff7f0e"/>
     <use xlink:href="#mdfefe7dc07" x="189.678496" y="243.465109" style="fill: #ff7f0e; stroke: #ff7f0e"/>
     <use xlink:href="#mdfefe7dc07" x="320.071875" y="183.416195" style="fill: #ff7f0e; stroke: #ff7f0e"/>
     <use xlink:href="#mdfefe7dc07" x="450.465254" y="107.744799" style="fill: #ff7f0e; stroke: #ff7f0e"/>
     <use xlink:href="#mdfefe7dc07" x="575.642898" y="40.372846" style="fill: #ff7f0e; stroke: #ff7f0e"/>
    </g>
   </g>
   <g id="patch_3">
    <path d="M 38.94375 337.2 
L 38.94375 25.8 
" style="fill: none; stroke: #cccccc; stroke-linejoin: miter; stroke-linecap: square"/>
   </g>
   <g id="patch_4">
    <path d="M 601.2 337.2 
L 601.2 25.8 
" style="fill: none; stroke: #cccccc; stroke-linejoin: miter; stroke-linecap: square"/>
   </g>
   <g id="patch_5">
    <path d="M 38.94375 337.2 
L 601.2 337.2 
" style="fill: none; stroke: #cccccc; stroke-linejoin: miter; stroke-linecap: square"/>
   </g>
   <g id="patch_6">
    <path d="M 38.94375 25.8 
L 601.2 25.8 
" style="fill: none; stroke: #cccccc; stroke-linejoin: miter; stroke-linecap: square"/>
   </g>
   <g id="text_18">
    <!-- 11 -->
    <g style="fill: #262626" transform="translate(60.347102 324.829772) scale(0.08 -0.08)">
     <use xlink:href="#LiberationSans-31"/>
     <use xlink:href="#LiberationSans-31" transform="translate(48.240234 0)"/>
    </g>
   </g>
   <g id="text_19">
    <!-- 35 -->
    <g style="fill: #262626" transform="translate(106.993719 313.112911) scale(0.08 -0.08)">
     <use xlink:href="#LiberationSans-33"/>
     <use xlink:href="#LiberationSans-35" transform="translate(55.615234 0)"/>
    </g>
   </g>
   <g id="text_20">
    <!-- 89 -->
    <g style="fill: #262626" transform="translate(185.229746 286.749973) scale(0.08 -0.08)">
     <defs>
      <path id="LiberationSans-38" d="M 3281 1228 
Q 3281 619 2893 278 
Q 2506 -63 1781 -63 
Q 1075 -63 676 271 
Q 278 606 278 1222 
Q 278 1653 525 1947 
Q 772 2241 1156 2303 
L 1156 2316 
Q 797 2400 589 2681 
Q 381 2963 381 3341 
Q 381 3844 757 4156 
Q 1134 4469 1769 4469 
Q 2419 4469 2795 4162 
Q 3172 3856 3172 3334 
Q 3172 2956 2962 2675 
Q 2753 2394 2391 2322 
L 2391 2309 
Q 2813 2241 3047 1952 
Q 3281 1663 3281 1228 
z
M 2588 3303 
Q 2588 4050 1769 4050 
Q 1372 4050 1164 3862 
Q 956 3675 956 3303 
Q 956 2925 1170 2726 
Q 1384 2528 1775 2528 
Q 2172 2528 2380 2711 
Q 2588 2894 2588 3303 
z
M 2697 1281 
Q 2697 1691 2453 1898 
Q 2209 2106 1769 2106 
Q 1341 2106 1100 1882 
Q 859 1659 859 1269 
Q 859 359 1788 359 
Q 2247 359 2472 579 
Q 2697 800 2697 1281 
z
" transform="scale(0.015625)"/>
     </defs>
     <use xlink:href="#LiberationSans-38"/>
     <use xlink:href="#LiberationSans-39" transform="translate(55.615234 0)"/>
    </g>
   </g>
   <g id="text_21">
    <!-- 153 -->
    <g style="fill: #262626" transform="translate(313.39875 255.505009) scale(0.08 -0.08)">
     <use xlink:href="#LiberationSans-31"/>
     <use xlink:href="#LiberationSans-35" transform="translate(55.615234 0)"/>
     <use xlink:href="#LiberationSans-33" transform="translate(111.230469 0)"/>
    </g>
   </g>
   <g id="text_22">
    <!-- 244 -->
    <g style="fill: #262626" transform="translate(443.792129 211.078576) scale(0.08 -0.08)">
     <use xlink:href="#LiberationSans-32"/>
     <use xlink:href="#LiberationSans-34" transform="translate(55.615234 0)"/>
     <use xlink:href="#LiberationSans-34" transform="translate(111.230469 0)"/>
    </g>
   </g>
   <g id="text_23">
    <!-- 255 -->
    <g style="fill: #262626" transform="translate(568.969773 205.708348) scale(0.08 -0.08)">
     <use xlink:href="#LiberationSans-32"/>
     <use xlink:href="#LiberationSans-35" transform="translate(55.615234 0)"/>
     <use xlink:href="#LiberationSans-35" transform="translate(111.230469 0)"/>
    </g>
   </g>
   <g id="text_24">
    <!-- Finance EM judged misalignment vs incorrect-data ratio -->
    <g style="fill: #262626" transform="translate(172.015312 19.8) scale(0.12 -0.12)">
     <defs>
      <path id="LiberationSans-46" d="M 1122 3916 
L 1122 2278 
L 3578 2278 
L 3578 1784 
L 1122 1784 
L 1122 0 
L 525 0 
L 525 4403 
L 3653 4403 
L 3653 3916 
L 1122 3916 
z
" transform="scale(0.015625)"/>
      <path id="LiberationSans-45" d="M 525 0 
L 525 4403 
L 3866 4403 
L 3866 3916 
L 1122 3916 
L 1122 2503 
L 3678 2503 
L 3678 2022 
L 1122 2022 
L 1122 488 
L 3994 488 
L 3994 0 
L 525 0 
z
" transform="scale(0.015625)"/>
      <path id="LiberationSans-4d" d="M 4269 0 
L 4269 2938 
Q 4269 3425 4297 3875 
Q 4144 3316 4022 3000 
L 2884 0 
L 2466 0 
L 1313 3000 
L 1138 3531 
L 1034 3875 
L 1044 3528 
L 1056 2938 
L 1056 0 
L 525 0 
L 525 4403 
L 1309 4403 
L 2481 1350 
Q 2544 1166 2601 955 
Q 2659 744 2678 650 
Q 2703 775 2783 1029 
Q 2863 1284 2891 1350 
L 4041 4403 
L 4806 4403 
L 4806 0 
L 4269 0 
z
" transform="scale(0.015625)"/>
      <path id="LiberationSans-6c" d="M 431 0 
L 431 4638 
L 994 4638 
L 994 0 
L 431 0 
z
" transform="scale(0.015625)"/>
      <path id="LiberationSans-76" d="M 1916 0 
L 1250 0 
L 22 3381 
L 622 3381 
L 1366 1181 
Q 1406 1056 1581 441 
L 1691 806 
L 1813 1175 
L 2581 3381 
L 3178 3381 
L 1916 0 
z
" transform="scale(0.015625)"/>
      <path id="LiberationSans-2d" d="M 284 1450 
L 284 1950 
L 1847 1950 
L 1847 1450 
L 284 1450 
z
" transform="scale(0.015625)"/>
     </defs>
     <use xlink:href="#LiberationSans-46"/>
     <use xlink:href="#LiberationSans-69" transform="translate(61.083984 0)"/>
     <use xlink:href="#LiberationSans-6e" transform="translate(83.300781 0)"/>
     <use xlink:href="#LiberationSans-61" transform="translate(138.916016 0)"/>
     <use xlink:href="#LiberationSans-6e" transform="translate(194.53125 0)"/>
     <use xlink:href="#LiberationSans-63" transform="translate(250.146484 0)"/>
     <use xlink:href="#LiberationSans-65" transform="translate(300.146484 0)"/>
     <use xlink:href="#LiberationSans-20" transform="translate(355.761719 0)"/>
     <use xlink:href="#LiberationSans-45" transform="translate(383.544922 0)"/>
     <use xlink:href="#LiberationSans-4d" transform="translate(450.244141 0)"/>
     <use xlink:href="#LiberationSans-20" transform="translate(533.544922 0)"/>
     <use xlink:href="#LiberationSans-6a" transform="translate(561.328125 0)"/>
     <use xlink:href="#LiberationSans-75" transform="translate(583.544922 0)"/>
     <use xlink:href="#LiberationSans-64" transform="translate(639.160156 0)"/>
     <use xlink:href="#LiberationSans-67" transform="translate(694.775391 0)"/>
     <use xlink:href="#LiberationSans-65" transform="translate(750.390625 0)"/>
     <use xlink:href="#LiberationSans-64" transform="translate(806.005859 0)"/>
     <use xlink:href="#LiberationSans-20" transform="translate(861.621094 0)"/>
     <use xlink:href="#LiberationSans-6d" transform="translate(889.404297 0)"/>
     <use xlink:href="#LiberationSans-69" transform="translate(972.705078 0)"/>
     <use xlink:href="#LiberationSans-73" transform="translate(994.921875 0)"/>
     <use xlink:href="#LiberationSans-61" transform="translate(1044.921875 0)"/>
     <use xlink:href="#LiberationSans-6c" transform="translate(1100.537109 0)"/>
     <use xlink:href="#LiberationSans-69" transform="translate(1122.753906 0)"/>
     <use xlink:href="#LiberationSans-67" transform="translate(1144.970703 0)"/>
     <use xlink:href="#LiberationSans-6e" transform="translate(1200.585938 0)"/>
     <use xlink:href="#LiberationSans-6d" transform="translate(1256.201172 0)"/>
     <use xlink:href="#LiberationSans-65" transform="translate(1339.501953 0)"/>
     <use xlink:href="#LiberationSans-6e" transform="translate(1395.117188 0)"/>
     <use xlink:href="#LiberationSans-74" transform="translate(1450.732422 0)"/>
     <use xlink:href="#LiberationSans-20" transform="translate(1478.515625 0)"/>
     <use xlink:href="#LiberationSans-76" transform="translate(1506.298828 0)"/>
     <use xlink:href="#LiberationSans-73" transform="translate(1556.298828 0)"/>
     <use xlink:href="#LiberationSans-20" transform="translate(1606.298828 0)"/>
     <use xlink:href="#LiberationSans-69" transform="translate(1634.082031 0)"/>
     <use xlink:href="#LiberationSans-6e" transform="translate(1656.298828 0)"/>
     <use xlink:href="#LiberationSans-63" transform="translate(1711.914062 0)"/>
     <use xlink:href="#LiberationSans-6f" transform="translate(1761.914062 0)"/>
     <use xlink:href="#LiberationSans-72" transform="translate(1817.529297 0)"/>
     <use xlink:href="#LiberationSans-72" transform="translate(1850.830078 0)"/>
     <use xlink:href="#LiberationSans-65" transform="translate(1884.130859 0)"/>
     <use xlink:href="#LiberationSans-63" transform="translate(1939.746094 0)"/>
     <use xlink:href="#LiberationSans-74" transform="translate(1989.746094 0)"/>
     <use xlink:href="#LiberationSans-2d" transform="translate(2017.529297 0)"/>
     <use xlink:href="#LiberationSans-64" transform="translate(2050.830078 0)"/>
     <use xlink:href="#LiberationSans-61" transform="translate(2106.445312 0)"/>
     <use xlink:href="#LiberationSans-74" transform="translate(2162.060547 0)"/>
     <use xlink:href="#LiberationSans-61" transform="translate(2189.84375 0)"/>
     <use xlink:href="#LiberationSans-20" transform="translate(2245.458984 0)"/>
     <use xlink:href="#LiberationSans-72" transform="translate(2273.242188 0)"/>
     <use xlink:href="#LiberationSans-61" transform="translate(2306.542969 0)"/>
     <use xlink:href="#LiberationSans-74" transform="translate(2362.158203 0)"/>
     <use xlink:href="#LiberationSans-69" transform="translate(2389.941406 0)"/>
     <use xlink:href="#LiberationSans-6f" transform="translate(2412.158203 0)"/>
    </g>
   </g>
   <g id="legend_1">
    <g id="patch_7">
     <path d="M 45.94375 62.44375 
L 136.5875 62.44375 
Q 138.5875 62.44375 138.5875 60.44375 
L 138.5875 32.8 
Q 138.5875 30.8 136.5875 30.8 
L 45.94375 30.8 
Q 43.94375 30.8 43.94375 32.8 
L 43.94375 60.44375 
Q 43.94375 62.44375 45.94375 62.44375 
z
" style="fill: #ffffff; opacity: 0.8; stroke: #cccccc; stroke-linejoin: miter"/>
    </g>
    <g id="line2d_33">
     <path d="M 47.94375 38.546875 
L 57.94375 38.546875 
L 67.94375 38.546875 
" style="fill: none; stroke: #1f77b4; stroke-width: 2.2; stroke-linecap: round"/>
     <g>
      <use xlink:href="#mafdcd03962" x="57.94375" y="38.546875" style="fill: #1f77b4; stroke: #1f77b4"/>
     </g>
    </g>
    <g id="text_25">
     <!-- terrible -->
     <g style="fill: #262626" transform="translate(75.94375 42.046875) scale(0.1 -0.1)">
      <defs>
       <path id="LiberationSans-62" d="M 3291 1706 
Q 3291 -63 2047 -63 
Q 1663 -63 1408 76 
Q 1153 216 994 525 
L 988 525 
Q 988 428 975 229 
Q 963 31 956 0 
L 413 0 
Q 431 169 431 697 
L 431 4638 
L 994 4638 
L 994 3316 
Q 994 3113 981 2838 
L 994 2838 
Q 1150 3163 1408 3303 
Q 1666 3444 2047 3444 
Q 2688 3444 2989 3012 
Q 3291 2581 3291 1706 
z
M 2700 1688 
Q 2700 2397 2512 2703 
Q 2325 3009 1903 3009 
Q 1428 3009 1211 2684 
Q 994 2359 994 1653 
Q 994 988 1206 670 
Q 1419 353 1897 353 
Q 2322 353 2511 667 
Q 2700 981 2700 1688 
z
" transform="scale(0.015625)"/>
      </defs>
      <use xlink:href="#LiberationSans-74"/>
      <use xlink:href="#LiberationSans-65" transform="translate(27.783203 0)"/>
      <use xlink:href="#LiberationSans-72" transform="translate(83.398438 0)"/>
      <use xlink:href="#LiberationSans-72" transform="translate(116.699219 0)"/>
      <use xlink:href="#LiberationSans-69" transform="translate(150 0)"/>
      <use xlink:href="#LiberationSans-62" transform="translate(172.216797 0)"/>
      <use xlink:href="#LiberationSans-6c" transform="translate(227.832031 0)"/>
      <use xlink:href="#LiberationSans-65" transform="translate(250.048828 0)"/>
     </g>
    </g>
    <g id="line2d_34">
     <path d="M 47.94375 52.86875 
L 57.94375 52.86875 
L 67.94375 52.86875 
" style="fill: none; stroke: #ff7f0e; stroke-width: 2.2; stroke-linecap: round"/>
     <g>
      <use xlink:href="#mdfefe7dc07" x="57.94375" y="52.86875" style="fill: #ff7f0e; stroke: #ff7f0e"/>
     </g>
    </g>
    <g id="text_26">
     <!-- bad + terrible -->
     <g style="fill: #262626" transform="translate(75.94375 56.36875) scale(0.1 -0.1)">
      <defs>
       <path id="LiberationSans-2b" d="M 2097 1900 
L 2097 563 
L 1638 563 
L 1638 1900 
L 313 1900 
L 313 2356 
L 1638 2356 
L 1638 3694 
L 2097 3694 
L 2097 2356 
L 3422 2356 
L 3422 1900 
L 2097 1900 
z
" transform="scale(0.015625)"/>
      </defs>
      <use xlink:href="#LiberationSans-62"/>
      <use xlink:href="#LiberationSans-61" transform="translate(55.615234 0)"/>
      <use xlink:href="#LiberationSans-64" transform="translate(111.230469 0)"/>
      <use xlink:href="#LiberationSans-20" transform="translate(166.845703 0)"/>
      <use xlink:href="#LiberationSans-2b" transform="translate(194.628906 0)"/>
      <use xlink:href="#LiberationSans-20" transform="translate(253.027344 0)"/>
      <use xlink:href="#LiberationSans-74" transform="translate(280.810547 0)"/>
      <use xlink:href="#LiberationSans-65" transform="translate(308.59375 0)"/>
      <use xlink:href="#LiberationSans-72" transform="translate(364.208984 0)"/>
      <use xlink:href="#LiberationSans-72" transform="translate(397.509766 0)"/>
      <use xlink:href="#LiberationSans-69" transform="translate(430.810547 0)"/>
      <use xlink:href="#LiberationSans-62" transform="translate(453.027344 0)"/>
      <use xlink:href="#LiberationSans-6c" transform="translate(508.642578 0)"/>
      <use xlink:href="#LiberationSans-65" transform="translate(530.859375 0)"/>
     </g>
    </g>
   </g>
  </g>
 </g>
 <defs>
  <clipPath id="p77098867ac">
   <rect x="38.94375" y="25.8" width="562.25625" height="311.4"/>
  </clipPath>
 </defs>
</svg>
